# xmcd CD database file generated by Grip 3.0.5
# 
# Track frame offsets:
#       150
#       10274
#       24146
#       51581
#       63475
#       81237
#       91171
#       104314
#       117424
#       128978
#       146154
#       165405
#       186292
#       198688
#       213220
# 
# Disc length: 3040 seconds
# 
# Revision: 2
# Processed by: cddbd v1.4PL0 Copyright (c) Steve Scherf et al.
# Submitted via: Grip 3.0.5
# 
DISCID=d30bde0f
DTITLE=Various Artist - Edges From the Postcard 2 [CD2]
DYEAR=1998
DGENRE=Country
TTITLE0=Mike Ireland and Holler - Pop A Top
TTITLE1=Union Springs - In My Dreams
TTITLE2=Roy Kasten - Blue Island, Illinois
TTITLE3=Quick and Dirty - Smoke Rings
TTITLE4=Ed Pettersen and the High Line Riders - If I Tell You
TTITLE5=Jim Stringer - Love a Little More (of the Way I Am)
TTITLE6=Cash Hollow - Rachel's Wedding
TTITLE7=Bluetick - Broken Hearted Born
TTITLE8=Bill Lloyd - I Can't Tell My Heart What To Do
TTITLE9=Bob Woodruff and Kerosene - Angel of the Cafe Rique
TTITLE10=Elena Skye - Biggest Piece of Nothing
TTITLE11=The Ghost Rockets - Under the Table
TTITLE12=One Riot One Ranger - It Must Be Heaven
TTITLE13=Hudson Super Six - Baltimore
TTITLE14=Kimmie Rhodes - Lines
EXTD=
EXTT0=
EXTT1=
EXTT2=
EXTT3=
EXTT4=
EXTT5=
EXTT6=
EXTT7=
EXTT8=
EXTT9=
EXTT10=
EXTT11=
EXTT12=
EXTT13=
EXTT14=
PLAYORDER=
